<svg xmlns="http://www.w3.org/2000/svg" viewBox="0 0 512 512"><rect width="512" height="512" rx="112" fill="#2440C4"/><path fill="#FFFFFF" transform="translate(102.96 367.01) scale(0.28465 -0.28465)" d="M368 -14Q261 -14 185.5 36.5Q110 87 70.0 178.5Q30 270 30 392Q30 516 71.5 606.0Q113 696 193.5 745.0Q274 794 392 794Q494 794 563.0 759.0Q632 724 671.0 662.5Q710 601 721 520H561Q549 592 506.0 630.0Q463 668 390 668Q293 668 245.5 595.5Q198 523 198 391Q198 256 247.5 183.0Q297 110 394 110Q475 110 519.0 157.5Q563 205 568 286H348V407H722V0H601V90H577Q557 50 508.5 18.0Q460 -14 368 -14Z"/><circle fill="#F7E76A" cx="362.48" cy="329.01" r="38"/></svg>
